# xmcd
#
# Track frame offsets:
# 187
# 14472
# 33100
# 52202
# 75742
# 98655
# 120987
# 139070
# 156325
# 180242
#
# Disc length: 2629 seconds
#
#
# Revision: 1
# Processed by: cddbd v1.5.1PL0 Copyright (c) Steve Scherf et al.
# Submitted via: FreeRIP 2.90 
#
DISCID=740a430a
DTITLE=James Cotton Band - High Energy
DYEAR=1975
DGENRE=Blues
TTITLE0=Hot 'n Cold
TTITLE1=Chicken Heads
TTITLE2=Hard Time Blues
TTITLE3=I Got A Feelin'
TTITLE4=Weather Report (The Weather Man Said)
TTITLE5=Keep Cooking Mama
TTITLE6=Fannie Mae
TTITLE7=Caldonia
TTITLE8=Rock 'n Roll Music (Ain't Nothing New)
TTITLE9=James' Theme
EXTD=LABEL=One Way Records OW 27671
EXTT0=
EXTT1=
EXTT2=
EXTT3=
EXTT4=
EXTT5=
EXTT6=
EXTT7=
EXTT8=
EXTT9=
PLAYORDER=
